<?xml version="1.0" standalone="no"?>
<!DOCTYPE svg PUBLIC "-//W3C//DTD SVG 20010904//EN"
 "http://www.w3.org/TR/2001/REC-SVG-20010904/DTD/svg10.dtd">
<svg version="1.0" xmlns="http://www.w3.org/2000/svg"
 width="1344.000000pt" height="768.000000pt" viewBox="0 0 1344.000000 768.000000"
 preserveAspectRatio="xMidYMid meet">

<g transform="translate(0.000000,768.000000) scale(0.100000,-0.100000)"
fill="#000000" stroke="none">
<path d="M7221 6225 c-24 -8 -49 -11 -55 -9 -33 13 -216 -145 -216 -185 0 -10
-7 -26 -15 -37 -8 -10 -15 -28 -15 -39 0 -11 -6 -27 -13 -36 -21 -28 -5 -183
26 -249 32 -69 156 -176 215 -185 20 -3 56 -10 79 -16 54 -12 84 -12 81 1 -2
6 8 16 21 23 28 14 29 16 77 121 30 68 35 88 33 145 -3 100 -52 197 -86 170
-16 -14 -78 -1 -96 19 -9 10 -17 28 -19 42 -4 31 21 37 82 20 30 -8 48 -22 68
-50 15 -22 33 -39 40 -40 11 0 16 -13 10 -24 -2 -2 4 -12 13 -22 32 -36 53
-90 60 -149 7 -54 7 -52 4 21 -4 99 -37 177 -103 241 -29 29 -38 43 -27 43 32
0 75 -31 114 -83 68 -90 88 -162 70 -248 -16 -76 -36 -112 -59 -106 -11 3 -29
-7 -50 -30 -18 -18 -45 -40 -61 -49 -16 -8 -29 -18 -29 -23 0 -4 -10 -13 -22
-20 -20 -9 -15 -11 33 -8 64 4 135 35 183 81 40 38 63 130 51 198 -7 42 -8 63
-3 194 2 41 -2 67 -11 78 -45 54 -210 156 -253 156 -9 0 -20 5 -23 10 -4 7
-14 6 -28 -2 -20 -10 -21 -10 -8 5 7 10 24 17 37 17 12 0 26 5 29 10 4 6 3 10
-2 9 -4 -1 -16 1 -26 6 -10 4 -21 5 -24 2 -3 -4 -13 -2 -22 2 -9 5 -34 3 -60
-4z"/>
<path d="M6061 5934 c13 -15 11 -16 -21 -10 -98 18 -148 18 -217 -3 -38 -12
-88 -34 -109 -49 -57 -42 -150 -151 -172 -203 -38 -88 -37 -106 9 -164 8 -11
23 -46 33 -78 22 -73 73 -131 141 -162 60 -28 95 -36 95 -24 0 10 -41 29 -74
36 -39 7 -87 46 -114 91 -24 42 -27 57 -27 132 1 76 4 93 37 161 34 73 66 109
96 109 10 0 12 -7 9 -21 -4 -16 -2 -19 11 -13 9 4 38 8 65 10 40 2 47 0 47
-16 0 -11 -11 -22 -26 -27 -20 -7 -27 -17 -30 -38 -7 -76 -23 -105 -57 -105
-11 0 -26 -8 -34 -17 -12 -17 -13 -16 -12 7 1 14 1 41 0 60 -3 33 -4 33 -11
10 -4 -14 -8 -55 -9 -93 -1 -67 -1 -67 24 -61 31 8 32 -3 3 -33 l-21 -23 24
-51 c19 -42 32 -55 67 -70 49 -21 98 -24 139 -8 15 6 42 13 58 16 57 9 95 35
133 91 20 30 45 63 54 73 10 10 25 59 35 113 9 52 21 92 25 90 20 -13 4 55
-27 115 -34 65 -125 171 -147 171 -6 0 -5 -6 3 -16z m83 -188 c52 -62 48 -80
-11 -52 -15 7 -41 20 -58 27 -33 16 -45 47 -23 60 29 19 57 9 92 -35z"/>
<path d="M10665 5749 c-4 -5 1 -19 11 -30 15 -16 16 -24 6 -39 -14 -24 -7 -46
18 -53 18 -4 40 9 40 24 0 4 -10 20 -23 36 -25 30 -29 60 -8 55 7 -1 10 2 6 8
-8 13 -42 13 -50 -1z"/>
<path d="M10057 5607 c-16 -24 -15 -24 16 -18 18 4 32 13 32 21 0 25 -31 22
-48 -3z"/>
<path d="M6565 5550 c-22 -15 -25 -20 -12 -20 12 0 16 -4 11 -12 -6 -10 -5
-10 7 -1 10 8 37 11 72 8 46 -3 55 -1 50 11 -3 8 -12 13 -19 10 -8 -3 -14 1
-14 9 0 22 -59 19 -95 -5z"/>
<path d="M6710 5514 c0 -3 9 -18 20 -34 11 -15 22 -49 25 -75 3 -26 19 -73 35
-105 20 -39 25 -57 15 -57 -7 0 -11 6 -8 13 2 6 1 14 -4 17 -4 3 -8 -8 -8 -23
-1 -16 3 -26 7 -24 4 3 8 -2 8 -11 0 -10 -5 -13 -12 -9 -9 5 -9 2 1 -9 7 -9
10 -17 7 -17 -4 0 -2 -8 3 -19 8 -14 6 -22 -8 -35 -10 -9 -22 -13 -26 -9 -5 5
-3 0 4 -9 7 -10 10 -18 5 -18 -4 0 -3 -5 4 -12 8 -8 8 -17 1 -30 -6 -11 -8
-26 -5 -33 2 -7 2 -16 -1 -19 -4 -3 -8 -17 -9 -31 -2 -17 1 -23 9 -18 9 5 8 2
0 -9 -7 -8 -10 -18 -6 -22 15 -15 10 -62 -9 -83 -20 -21 -20 -22 0 -34 23 -14
18 -39 -7 -39 -13 0 -14 -2 -2 -9 19 -12 57 3 103 40 32 25 37 27 35 10 0 -11
-5 -17 -11 -14 -5 4 -7 -1 -3 -10 8 -20 -38 -77 -61 -77 -15 0 -15 -2 -2 -10
12 -8 10 -10 -8 -10 -13 0 -21 -4 -18 -9 3 -4 -2 -8 -12 -8 -44 0 -65 -4 -58
-10 33 -33 156 -2 156 39 0 14 5 18 16 14 8 -3 13 -2 10 2 -3 5 19 39 48 75
29 37 73 94 97 128 82 115 95 128 109 119 17 -10 69 40 71 67 1 12 4 10 9 -7
5 -17 8 -19 9 -7 1 9 6 17 12 17 5 0 8 4 5 8 -2 4 0 14 5 22 7 11 8 8 5 -12
-5 -32 2 -42 21 -27 15 13 18 43 3 34 -5 -3 -10 1 -10 9 0 9 -4 17 -10 17 -5
1 -14 3 -20 4 -5 1 -19 3 -30 4 -12 0 -31 11 -43 24 -14 13 -38 23 -60 25 -21
1 -56 11 -78 23 -22 11 -46 18 -52 16 -19 -7 -64 30 -71 58 -4 14 -13 25 -20
25 -8 0 -17 10 -20 23 -4 12 -24 36 -46 52 -21 17 -39 34 -40 38 0 17 -53 77
-66 77 -8 0 -14 -3 -14 -6z m95 -404 c-3 -5 -12 -10 -18 -10 -7 0 -6 4 3 10
19 12 23 12 15 0z m405 -25 c0 -1 -9 -10 -19 -19 -13 -12 -21 -14 -26 -6 -4 6
-1 9 7 8 7 -2 12 2 11 8 -1 6 5 11 13 11 8 0 14 -1 14 -2z m-410 -161 c0 -8
-19 -13 -24 -6 -3 5 1 9 9 9 8 0 15 -2 15 -3z m-5 -33 c3 -5 2 -12 -3 -15 -5
-3 -9 1 -9 9 0 17 3 19 12 6z m120 -60 c3 -5 2 -12 -3 -15 -5 -3 -9 1 -9 9 0
17 3 19 12 6z"/>
<path d="M10250 5498 c0 -5 -4 -7 -9 -3 -15 8 -25 -15 -12 -28 14 -14 13 -43
-3 -89 -8 -21 -10 -35 -5 -32 5 3 9 0 9 -5 0 -6 6 -11 13 -11 7 0 31 -9 52
-20 69 -36 106 -32 81 8 -4 7 -7 27 -6 45 4 77 0 96 -25 113 -31 20 -95 35
-95 22z"/>
<path d="M10741 5456 c-10 -11 -9 -22 4 -47 9 -17 23 -53 31 -80 15 -48 48
-83 68 -72 6 3 5 0 -1 -8 -21 -21 -16 -59 9 -68 23 -8 78 13 78 30 0 4 -11 16
-25 25 -21 14 -28 14 -43 3 -15 -12 -15 -12 -5 1 9 12 8 21 -2 40 -8 14 -14
31 -15 39 0 7 -11 35 -25 62 -13 27 -22 49 -19 49 2 0 0 9 -6 20 -13 23 -33
26 -49 6z"/>
<path d="M11145 5440 c-10 -16 14 -50 30 -44 8 4 15 12 15 20 0 18 -37 38 -45
24z"/>
<path d="M6505 5330 c-4 -17 -4 -34 -1 -37 3 -3 1 -15 -5 -27 -9 -18 -8 -19 3
-6 7 8 26 21 41 28 23 10 28 18 25 40 -2 21 -9 28 -30 30 -22 3 -27 -2 -33
-28z"/>
<path d="M9515 5251 c-6 -5 -19 -11 -30 -14 -19 -4 -19 -5 1 -6 12 0 27 6 34
14 14 16 10 20 -5 6z"/>
<path d="M10332 5245 c2 -12 -2 -19 -9 -17 -7 1 -13 -3 -13 -9 0 -5 -4 -8 -8
-5 -4 2 -14 1 -21 -3 -11 -7 -9 -13 8 -30 11 -11 21 -33 21 -47 0 -36 17 -63
37 -59 10 2 21 4 26 4 4 1 6 4 5 9 -1 4 7 24 17 45 18 35 18 39 2 72 -15 31
-22 37 -43 34 -4 0 -11 5 -16 13 -6 9 -8 8 -6 -7z"/>
<path d="M6412 5158 c-6 -16 -16 -27 -21 -23 -7 3 -11 -3 -11 -14 0 -18 -11
-27 -24 -18 -2 1 -12 -6 -22 -15 -11 -9 -22 -16 -26 -15 -4 1 -16 -5 -27 -15
-10 -9 -27 -18 -38 -20 -14 -3 -18 -13 -18 -45 0 -23 -4 -39 -9 -36 -5 4 -6 1
-2 -6 5 -7 14 -10 21 -7 8 3 19 -2 26 -10 11 -14 65 -47 79 -49 3 0 19 -9 35
-19 132 -83 127 -82 98 -31 -13 24 -30 49 -38 55 -31 26 -13 30 22 5 21 -14
41 -25 44 -25 4 0 50 -24 103 -54 53 -30 96 -53 96 -52 0 8 -48 54 -52 50 -3
-2 -5 3 -5 11 0 9 11 18 24 21 13 4 23 8 23 11 0 2 -14 25 -31 49 -40 59 -123
113 -185 122 -43 6 -49 10 -50 32 -1 14 3 31 10 39 8 11 8 13 -1 7 -7 -4 -18
-16 -24 -28 -8 -14 -8 -18 0 -14 7 5 9 1 5 -9 -4 -9 -7 -15 -8 -13 -1 2 -8 12
-16 22 -13 17 -13 18 -1 11 11 -6 13 -4 8 8 -3 9 -3 16 1 14 13 -4 54 31 44
37 -6 3 -8 15 -5 25 8 32 -12 32 -25 -1z"/>
<path d="M6779 5185 c-5 -22 -2 -45 6 -44 6 1 8 6 6 13 -2 6 -4 17 -4 24 0 12
-6 17 -8 7z"/>
<path d="M9980 5177 c17 -17 74 -37 104 -37 l20 0 -21 21 c-13 14 -38 23 -69
26 -43 5 -47 4 -34 -10z"/>
<path d="M10830 5136 c0 -8 5 -18 11 -21 6 -4 8 -13 5 -21 -3 -7 4 -23 14 -36
l19 -23 -5 28 c-2 15 0 27 5 27 12 0 1 43 -13 52 -18 12 -36 9 -36 -6z"/>
<path d="M8695 5110 c-18 -34 -19 -50 -4 -50 19 0 39 28 39 54 0 35 -16 33
-35 -4z"/>
<path d="M11309 5090 c-1 -5 -2 -16 -3 -22 -3 -20 14 -37 29 -31 12 4 12 9 -1
34 -15 30 -23 36 -25 19z"/>
<path d="M9898 5050 c23 -22 42 -44 42 -50 0 -11 73 -50 105 -56 13 -2 28 2
34 10 27 33 -34 87 -131 117 -90 29 -99 25 -50 -21z"/>
<path d="M10210 5073 c0 -6 -9 -10 -20 -8 -12 2 -18 0 -15 -6 4 -5 11 -7 16
-4 5 4 9 1 9 -6 0 -7 3 -10 6 -6 7 7 23 -7 47 -45 15 -25 20 -26 42 -16 14 6
23 13 21 15 -2 3 -13 0 -25 -6 -14 -8 -22 -8 -27 1 -4 6 -3 8 3 5 6 -4 19 0
29 8 18 14 18 15 -7 39 -15 14 -30 22 -33 18 -4 -3 -11 0 -16 8 -9 13 -10 13
-10 0 0 -13 -1 -13 -10 0 -6 9 -10 10 -10 3z"/>
<path d="M9224 5036 c11 -9 24 -16 30 -16 12 0 7 5 -24 19 -24 11 -24 11 -6
-3z"/>
<path d="M10460 5020 c0 -16 5 -30 11 -30 6 0 9 -9 6 -20 -4 -16 -2 -18 13
-10 9 5 19 8 21 7 2 -1 3 0 1 2 -1 2 5 12 14 22 14 16 14 19 -5 38 -32 32 -61
28 -61 -9z"/>
<path d="M6185 4998 c-9 -35 -3 -55 11 -37 6 8 8 25 4 39 l-7 25 -8 -27z"/>
<path d="M9627 4990 c5 -19 49 -44 56 -32 3 4 -10 17 -28 28 -29 19 -32 19
-28 4z"/>
<path d="M9696 4963 c-8 -21 8 -38 28 -30 22 8 20 24 -3 36 -15 8 -20 7 -25
-6z"/>
<path d="M8564 4944 c-8 -29 2 -42 18 -26 17 17 18 40 2 46 -9 3 -16 -4 -20
-20z"/>
<path d="M9058 4963 c6 -2 18 -2 25 0 6 3 1 5 -13 5 -14 0 -19 -2 -12 -5z"/>
<path d="M9276 4962 c-3 -5 0 -14 7 -20 15 -12 66 -21 72 -13 2 4 -6 8 -17 8
-11 1 -28 9 -38 18 -10 9 -21 12 -24 7z"/>
<path d="M9519 4948 c-1 -2 -2 -14 -3 -28 -2 -20 2 -26 20 -28 27 -2 96 -47
86 -56 -3 -4 1 -4 9 -1 10 4 19 -3 27 -20 6 -14 19 -25 28 -25 15 0 15 2 -1
20 -18 20 -18 21 0 14 13 -5 16 -4 11 4 -4 7 -14 12 -22 12 -8 0 -14 4 -14 9
0 5 -10 13 -21 16 -12 4 -34 20 -49 35 -25 25 -69 55 -71 48z"/>
<path d="M10722 4928 c-16 -16 -15 -43 3 -58 8 -7 15 -19 15 -26 0 -11 5 -11
28 -1 56 25 61 57 11 82 -34 18 -42 18 -57 3z"/>
<path d="M9365 4920 c-3 -5 -1 -10 4 -10 6 0 11 5 11 10 0 6 -2 10 -4 10 -3 0
-8 -4 -11 -10z"/>
<path d="M10152 4921 c4 -13 18 -16 19 -4 0 4 -5 9 -11 12 -7 2 -11 -2 -8 -8z"/>
<path d="M9260 4910 c0 -5 7 -10 16 -10 8 0 12 5 9 10 -3 6 -10 10 -16 10 -5
0 -9 -4 -9 -10z"/>
<path d="M9315 4890 c3 -5 8 -10 11 -10 2 0 4 5 4 10 0 6 -5 10 -11 10 -5 0
-7 -4 -4 -10z"/>
<path d="M9392 4870 c12 -16 26 -30 31 -30 5 0 7 -6 4 -14 -6 -14 24 -27 71
-30 23 -2 23 -2 3 14 -11 8 -28 24 -36 35 -16 19 -16 19 -4 -4 10 -21 7 -20
-30 9 -23 18 -41 37 -41 42 0 4 -5 8 -10 8 -6 0 -1 -13 12 -30z"/>
<path d="M9010 4872 c0 -7 -6 -12 -14 -12 -22 0 -27 -16 -6 -17 18 -2 36 24
25 35 -3 3 -5 0 -5 -6z"/>
<path d="M9043 4859 c9 -6 15 -14 12 -20 -4 -5 0 -9 8 -9 8 0 18 7 21 16 3 8
11 12 17 8 8 -4 9 -3 5 4 -4 7 -24 12 -44 12 -30 -1 -34 -2 -19 -11z"/>
<path d="M10295 4860 c-3 -5 -1 -10 4 -10 6 0 11 5 11 10 0 6 -2 10 -4 10 -3
0 -8 -4 -11 -10z"/>
<path d="M8436 4828 c-26 -21 -41 -28 -44 -20 -2 7 -8 9 -13 6 -6 -3 -18 1
-27 10 -24 21 -59 10 -66 -20 -4 -13 -14 -24 -23 -24 -9 0 -14 -3 -11 -6 3 -3
0 -31 -7 -62 -16 -74 -16 -122 1 -115 7 3 25 20 39 38 14 19 31 32 38 29 21
-8 85 24 92 46 4 12 20 37 37 55 22 25 29 42 26 65 l-3 31 -39 -33z"/>
<path d="M8915 4850 c3 -5 8 -10 11 -10 2 0 4 5 4 10 0 6 -5 10 -11 10 -5 0
-7 -4 -4 -10z"/>
<path d="M10702 4822 c1 -9 -2 -31 -6 -49 -4 -19 -3 -34 4 -38 5 -3 7 -11 4
-17 -4 -6 -2 -8 3 -5 6 4 18 -5 28 -19 16 -24 16 -27 -2 -46 -18 -21 -18 -21
5 -7 33 20 32 48 -2 121 -14 28 -19 51 -14 56 6 6 3 12 -6 15 -10 4 -14 0 -14
-11z"/>
<path d="M9620 4812 c0 -12 19 -26 26 -19 2 2 -2 10 -11 17 -9 8 -15 8 -15 2z"/>
<path d="M8990 4790 c0 -5 -3 -9 -7 -9 -5 1 -16 1 -26 0 -17 -1 -17 -2 -3 -17
9 -8 24 -14 33 -13 10 1 38 -3 62 -10 33 -9 41 -15 30 -22 -11 -7 -11 -9 4 -9
10 0 15 -4 12 -10 -3 -5 7 -12 22 -16 15 -4 57 -22 93 -41 36 -19 73 -32 82
-29 10 2 16 1 13 -3 -6 -10 23 -51 37 -51 5 0 8 7 4 15 -3 8 -1 15 5 15 6 0 8
7 5 16 -4 12 -2 15 9 10 27 -10 -2 33 -36 53 -16 10 -27 21 -24 24 3 4 -1 3
-7 -3 -14 -12 -31 -13 -24 -2 3 5 -1 9 -9 9 -15 0 -16 -18 0 -29 6 -5 5 -8 -3
-8 -7 0 -37 15 -67 34 -29 19 -57 31 -61 28 -4 -4 -4 -1 0 6 5 8 -3 16 -23 23
-17 6 -31 16 -31 22 0 7 -4 6 -9 -2 -11 -17 -42 -7 -37 11 1 7 1 10 -1 6 -3
-5 -13 -3 -24 2 -13 7 -19 7 -19 0z"/>
<path d="M9911 4781 c-18 -16 -19 -20 -6 -37 16 -22 20 -48 5 -39 -5 3 -10 2
-10 -4 0 -5 5 -13 10 -16 19 -12 0 -25 -21 -15 -17 10 -19 7 -19 -20 0 -27 -3
-30 -20 -25 -30 10 -36 -20 -10 -52 14 -19 32 -28 50 -29 16 0 26 4 23 9 -3 5
5 7 18 5 13 -2 24 2 24 9 0 6 3 14 7 18 11 11 -3 36 -16 28 -7 -4 -7 -1 1 9 7
8 11 17 8 20 -8 7 29 3 42 -5 6 -4 13 -1 16 5 3 10 9 10 23 2 15 -9 22 -8 31
1 17 19 12 53 -10 59 -14 3 -17 11 -14 35 4 20 0 37 -10 46 -19 19 -47 20 -40
1 5 -13 1 -13 -27 -1 -30 13 -36 12 -55 -4z"/>
<path d="M9550 4786 c0 -2 8 -10 18 -17 15 -13 16 -12 3 4 -13 16 -21 21 -21
13z"/>
<path d="M10240 4780 c0 -5 7 -10 16 -10 8 0 12 5 9 10 -3 6 -10 10 -16 10 -5
0 -9 -4 -9 -10z"/>
<path d="M8902 4768 c-7 -7 -12 -19 -12 -27 1 -11 5 -8 13 7 7 12 16 19 20 16
4 -4 7 -2 7 4 0 15 -13 15 -28 0z"/>
<path d="M6840 4738 c-15 -21 -17 -28 -6 -19 16 13 41 51 33 51 -2 0 -14 -15
-27 -32z"/>
<path d="M9313 4750 c7 -8 16 -18 20 -21 5 -3 8 -9 8 -13 -3 -20 1 -26 14 -26
8 0 23 -8 33 -17 10 -10 26 -25 37 -33 18 -14 18 -14 0 12 -11 15 -24 28 -28
28 -5 0 -5 5 -1 12 4 7 3 8 -5 4 -12 -8 -51 28 -51 46 0 13 20 9 26 -5 5 -14
34 -19 34 -7 0 10 -52 34 -77 35 -18 1 -20 -2 -10 -15z"/>
<path d="M8859 4758 c-7 -25 -5 -36 7 -31 16 6 19 33 4 33 -5 0 -10 -1 -11 -2z"/>
<path d="M9460 4740 c0 -5 5 -10 11 -10 5 0 7 5 4 10 -3 6 -8 10 -11 10 -2 0
-4 -4 -4 -10z"/>
<path d="M10355 4739 c-4 -5 -10 -7 -13 -5 -4 2 -8 -13 -8 -34 -1 -31 3 -40
24 -49 20 -10 28 -9 43 5 22 20 25 57 7 71 -22 17 -47 23 -53 12z"/>
<path d="M9266 4727 c3 -10 9 -15 12 -12 3 3 0 11 -7 18 -10 9 -11 8 -5 -6z"/>
<path d="M3120 4717 c0 -10 8 -17 18 -17 9 0 13 4 7 8 -5 4 -13 11 -17 16 -5
5 -8 2 -8 -7z"/>
<path d="M9410 4720 c0 -5 5 -10 10 -10 6 0 10 5 10 10 0 6 -4 10 -10 10 -5 0
-10 -4 -10 -10z"/>
<path d="M11150 4720 c0 -5 9 -15 20 -22 11 -7 20 -17 20 -22 0 -4 -7 -3 -15
4 -12 10 -15 10 -15 -3 0 -8 -7 -18 -16 -21 -10 -4 -14 -14 -11 -26 5 -18 4
-18 -21 -2 l-25 16 6 -44 c9 -68 62 -96 62 -32 0 16 2 29 5 28 3 -1 18 10 35
26 16 15 24 28 17 28 -6 0 -12 11 -12 24 0 24 -23 56 -41 56 -5 0 -9 -4 -9
-10z"/>
<path d="M8853 4687 c0 -7 14 -13 31 -14 28 -1 29 0 11 13 -24 17 -42 18 -42
1z"/>
<path d="M9477 4670 c3 -11 9 -20 15 -20 5 0 4 9 -2 20 -6 11 -12 20 -14 20
-2 0 -2 -9 1 -20z"/>
<path d="M8050 4662 c0 -10 3 -22 7 -26 11 -10 12 -36 2 -36 -4 0 -6 -7 -2
-16 3 -9 13 -14 24 -11 21 6 62 -30 53 -45 -4 -7 -2 -8 4 -4 7 4 12 2 12 -3 0
-6 6 -11 14 -11 14 0 26 -21 26 -46 0 -8 -6 -11 -16 -7 -14 5 -15 3 -4 -17 7
-12 10 -38 7 -56 -3 -20 -2 -34 4 -34 6 0 8 -4 5 -9 -3 -5 1 -12 10 -15 11 -4
14 -13 11 -28 -4 -13 3 -41 17 -67 48 -97 60 -123 62 -138 2 -8 11 -25 22 -37
21 -22 25 -54 10 -73 -6 -7 -5 -14 2 -18 6 -4 9 -13 7 -19 -3 -7 5 -30 18 -52
53 -86 118 -221 120 -246 1 -15 9 -38 18 -52 9 -13 19 -42 23 -64 4 -26 19
-52 46 -80 34 -36 42 -40 58 -30 15 10 22 10 32 0 18 -18 41 -15 67 9 12 11
28 18 36 16 7 -3 16 1 19 9 3 8 11 14 17 14 8 0 7 -5 -2 -17 -8 -9 -9 -14 -3
-10 7 4 19 -4 28 -17 15 -24 14 -25 -21 -54 -36 -28 -37 -31 -24 -58 11 -25
14 -27 24 -13 20 26 48 31 63 12 12 -16 13 -13 14 28 0 51 -4 49 117 53 28 0
49 5 46 10 -4 5 -1 6 5 2 6 -4 9 -13 6 -21 -4 -8 -11 -12 -17 -8 -6 3 -7 1 -3
-5 4 -6 14 -8 23 -5 12 5 14 3 8 -7 -5 -9 -4 -11 4 -6 6 4 8 13 4 19 -4 7 -8
17 -9 22 -1 6 -3 15 -4 20 -6 28 2 45 20 45 12 0 35 7 52 16 25 13 32 14 39 2
7 -10 9 -10 9 0 0 7 4 10 10 7 5 -3 12 6 16 20 5 19 1 31 -14 46 -12 10 -26
19 -31 19 -6 0 -7 7 -4 17 4 10 2 14 -4 10 -16 -10 -8 29 10 47 26 27 24 33
-33 93 -14 15 -18 22 -10 17 9 -5 5 0 -8 12 -21 19 -22 22 -6 34 14 12 18 12
29 -3 6 -9 15 -13 19 -9 4 4 7 3 6 -3 -4 -20 1 -60 9 -73 7 -12 12 -12 30 0
20 12 24 10 43 -12 16 -20 19 -32 13 -65 -12 -67 -9 -105 9 -123 16 -16 19
-15 43 13 15 17 30 29 34 28 3 -1 5 11 4 26 -2 28 14 36 32 16 4 -4 2 -5 -4
-1 -7 4 -13 2 -13 -3 0 -6 6 -11 13 -12 6 0 24 -3 38 -5 21 -3 33 3 53 27 14
17 26 35 26 41 0 6 7 7 16 4 8 -3 13 -2 10 3 -3 4 11 8 32 9 50 1 90 6 97 14
14 14 -31 77 -47 66 -2 -1 -13 4 -26 11 -12 6 -21 8 -20 4 4 -16 -14 -53 -23
-48 -5 4 -9 0 -9 -7 0 -9 -3 -9 -10 2 -5 8 -14 16 -20 16 -5 1 -16 2 -24 3 -8
0 -17 13 -22 29 -11 39 -11 46 0 54 7 4 4 14 -7 25 -56 57 -78 89 -73 108 3
11 6 28 6 38 0 9 7 17 16 17 10 0 5 9 -16 26 -17 15 -29 29 -26 31 7 8 -49
117 -68 132 -9 8 -16 27 -16 43 0 24 2 27 14 16 8 -7 10 -14 5 -16 -5 -2 -9
-11 -9 -20 0 -15 2 -15 10 -2 8 12 10 10 10 -8 0 -13 4 -20 10 -17 6 3 10 2
10 -3 0 -5 11 -14 25 -20 37 -17 33 8 -9 52 -33 36 -44 80 -23 93 6 4 7 1 2
-7 -6 -10 -4 -12 8 -7 10 3 18 2 18 -3 3 -19 5 -25 17 -47 6 -12 13 -30 15
-40 2 -10 9 -30 15 -45 6 -15 12 -51 14 -81 2 -45 6 -55 21 -54 9 1 17 6 17
12 0 5 5 3 11 -5 8 -11 12 -12 16 -3 3 8 12 5 26 -11 12 -13 28 -21 36 -18 8
3 11 0 7 -6 -4 -7 3 -8 25 -2 35 10 79 47 79 66 0 18 37 23 57 7 10 -8 12 -11
4 -7 -9 5 -12 3 -7 -4 13 -21 26 -13 26 17 0 16 9 39 19 52 19 23 20 23 39 6
13 -12 22 -15 27 -7 4 6 1 9 -7 8 -7 -2 -11 3 -9 12 14 46 8 91 -13 108 -13
10 -22 28 -22 44 0 15 2 25 5 23 2 -3 11 1 19 8 13 10 14 9 7 -2 -6 -10 -4
-12 5 -6 8 5 10 21 7 46 -3 22 -4 39 -2 39 1 0 17 -30 35 -67 26 -55 33 -64
41 -50 6 9 19 22 31 28 15 8 19 8 13 -1 -5 -8 0 -11 16 -8 20 2 23 8 21 32 -3
23 -1 28 13 23 9 -4 14 -3 11 2 -3 4 3 16 14 26 11 10 20 22 20 26 0 15 -58
40 -65 28 -5 -7 -12 -6 -22 2 -11 10 -16 10 -23 0 -5 -9 -10 -10 -14 -3 -4 6
-14 8 -23 5 -13 -5 -15 -2 -10 11 4 10 3 15 -3 11 -11 -7 -13 4 -10 48 1 25
-1 27 -32 26 l-33 -1 28 -11 c28 -11 34 -22 17 -32 -5 -3 -10 -2 -10 4 0 5
-15 9 -32 8 -28 -2 -33 -6 -34 -27 -2 -27 13 -53 26 -45 4 3 14 -3 21 -12 10
-12 10 -14 2 -9 -8 4 -13 2 -13 -6 0 -10 -2 -10 -9 1 -12 19 -44 23 -65 8 -15
-11 -15 -17 -6 -42 7 -17 14 -40 16 -53 4 -19 1 -22 -19 -17 -21 6 -24 3 -23
-17 3 -35 -4 -42 -21 -19 -16 24 -38 28 -29 6 3 -9 0 -15 -9 -15 -19 0 -19
-34 0 -54 8 -8 23 -13 33 -11 10 2 19 -2 20 -8 1 -7 4 -25 8 -40 6 -28 6 -28
-15 -15 -19 11 -24 11 -35 -4 -7 -10 -16 -15 -19 -12 -5 6 -45 -29 -49 -43 -4
-11 -32 -8 -68 7 -21 9 -30 19 -30 35 0 24 -22 49 -34 38 -4 -4 -4 1 0 12 4
11 4 17 0 13 -9 -7 -46 22 -46 35 0 5 7 3 17 -4 15 -13 15 -12 6 6 -6 11 -9
25 -6 31 2 5 -8 21 -22 34 -18 17 -22 27 -14 36 7 9 4 17 -13 28 -17 12 -24
13 -30 3 -6 -9 -8 -9 -8 2 0 15 -83 94 -120 113 -14 7 -31 19 -38 26 -25 23
-48 31 -63 21 -10 -6 -10 -9 -1 -9 6 0 12 -5 12 -11 0 -5 -4 -7 -10 -4 -6 3
-7 -1 -4 -9 6 -16 25 -23 23 -8 -4 22 4 18 36 -17 19 -21 35 -44 35 -50 0 -6
6 -11 13 -11 6 -1 1 -7 -13 -15 -22 -13 -21 -20 3 -16 5 1 6 -3 3 -7 -3 -5 12
-37 34 -71 44 -68 50 -83 22 -58 -21 19 -34 13 -25 -11 5 -11 3 -13 -8 -7 -8
4 -2 -4 14 -19 33 -32 39 -66 7 -39 -11 10 -20 23 -20 31 0 7 -4 10 -10 7 -5
-3 -10 -1 -10 5 0 6 -5 8 -12 4 -6 -4 -8 -3 -5 3 7 11 -49 93 -63 93 -13 0
-21 33 -11 43 12 12 -40 58 -70 60 -12 1 -35 18 -52 39 -17 21 -37 38 -45 38
-12 0 -12 -3 -2 -15 7 -8 16 -12 21 -9 5 3 9 1 9 -4 0 -11 -24 -22 -46 -22 -9
0 -12 5 -8 12 4 7 3 8 -5 4 -6 -4 -9 -12 -6 -17 4 -5 -2 -9 -12 -9 -11 -1 -4
-7 17 -17 19 -8 30 -17 23 -20 -6 -2 -25 3 -41 11 -26 14 -31 14 -36 1 -3 -9
4 -19 17 -26 21 -12 21 -12 2 -19 -11 -4 -28 -6 -38 -4 -10 2 -15 -1 -12 -6 3
-5 14 -7 25 -5 22 4 27 -14 8 -33 -9 -9 -9 -12 0 -12 21 0 13 -20 -13 -30 -28
-11 -32 -25 -10 -34 8 -3 15 -10 15 -16 0 -6 -4 -9 -9 -5 -5 3 -13 0 -16 -6
-4 -5 -14 -8 -22 -5 -9 4 -11 2 -7 -6 5 -7 2 -9 -8 -5 -31 11 -27 -6 8 -34 20
-15 30 -30 24 -34 -5 -3 -14 -3 -20 0 -5 3 -10 4 -10 0 0 -3 12 -10 28 -16 24
-9 25 -11 9 -21 -18 -9 -18 -10 0 -25 10 -8 12 -12 5 -8 -8 4 -11 -1 -8 -17 3
-13 5 -27 5 -31 1 -5 6 -5 11 -2 6 3 10 1 10 -5 0 -6 5 -8 10 -5 13 8 13 -31
0 -55 -7 -13 -7 -21 0 -25 5 -3 10 0 10 7 0 9 3 9 10 -2 11 -18 14 -40 2 -25
-4 6 -20 11 -37 10 -28 0 -30 3 -27 31 2 19 -3 36 -12 44 -12 9 -16 10 -16 0
0 -8 -8 -10 -24 -6 -14 3 -28 2 -31 -4 -3 -5 -12 -10 -18 -10 -8 0 -8 3 1 9
10 6 6 11 -17 19 -43 15 -41 36 4 29 l35 -6 -22 29 c-11 16 -18 35 -15 43 3 9
-4 19 -17 26 -12 7 -22 21 -22 31 0 14 4 16 12 9 8 -7 15 -6 20 2 4 8 3 9 -4
5 -7 -4 -12 -1 -12 9 0 9 -4 14 -9 11 -4 -3 -23 6 -41 19 -22 16 -41 23 -55
19 -13 -3 -28 1 -37 10 -9 8 -18 13 -21 10 -2 -3 -7 2 -10 9 -7 18 30 11 54
-9 9 -8 18 -11 22 -8 8 8 -3 35 -13 29 -11 -7 -20 20 -10 34 6 10 12 10 28 2
28 -15 32 -14 32 9 0 12 5 17 14 14 10 -4 14 3 12 25 -2 35 3 37 44 16 35 -18
38 -13 10 17 -21 23 -27 44 -10 33 6 -3 10 -2 10 3 0 10 -33 22 -60 22 -12 0
-13 -2 -1 -9 11 -7 11 -13 -3 -32 -9 -13 -16 -18 -16 -11 0 7 -4 11 -8 8 -4
-3 -25 -1 -45 4 -41 9 -49 4 -14 -10 l22 -9 -22 0 c-13 -1 -23 -6 -23 -12 0
-5 5 -7 11 -3 8 4 9 0 4 -15 -4 -12 -2 -21 4 -21 6 0 8 -7 4 -16 -5 -13 -7
-13 -14 -2 -7 10 -9 10 -9 -2 0 -10 -5 -7 -16 8 -20 28 -48 30 -41 2 3 -13 0
-20 -9 -20 -8 0 -14 5 -14 10 0 17 -18 11 -23 -7 -4 -17 -5 -17 -6 -1 -1 11
-6 15 -16 12 -12 -5 -12 -9 2 -32 l15 -27 -21 25 c-11 14 -21 30 -21 36 0 7
-9 14 -20 17 -11 3 -23 13 -27 24 -4 10 -16 30 -26 45 -16 21 -18 30 -9 41 7
8 9 16 6 19 -2 3 -7 17 -10 32 -3 19 0 26 11 26 8 0 15 5 15 11 0 5 -5 7 -12
3 -11 -7 -9 10 7 49 5 13 2 17 -14 17 -23 0 -53 26 -65 55 -5 15 -9 16 -15 6
-7 -10 -11 -10 -22 1 -19 19 -30 22 -39 9 -4 -7 -15 0 -30 19 -26 34 -40 38
-40 12z m863 -339 c-9 -3 -10 -10 -3 -23 9 -16 7 -17 -15 -6 -39 18 -40 36 -2
35 18 0 26 -3 20 -6z m-58 -13 c3 -5 1 -10 -4 -10 -6 0 -11 5 -11 10 0 6 2 10
4 10 3 0 8 -4 11 -10z m127 -8 c-1 -8 2 -11 7 -8 5 4 14 -2 20 -11 6 -10 11
-15 11 -10 0 4 9 -2 20 -13 11 -11 26 -17 35 -14 14 6 20 -13 18 -63 -1 -7 2
-13 6 -13 4 0 13 6 20 13 11 10 13 10 7 0 -5 -8 -1 -13 11 -14 10 0 13 -3 6
-6 -7 -2 -13 -12 -12 -21 0 -11 2 -12 6 -4 7 18 22 14 18 -5 -2 -10 -4 -20 -4
-22 -1 -2 -10 4 -20 13 -11 10 -17 24 -14 32 4 10 0 12 -11 8 -11 -4 -22 5
-37 30 -11 20 -25 33 -30 30 -10 -6 -69 26 -69 37 0 4 -9 10 -19 14 -16 5 -19
14 -12 43 3 11 45 -6 43 -16z m48 -164 c0 -6 -9 1 -20 15 -11 14 -20 29 -20
34 1 11 40 -37 40 -49z m646 7 c1 -8 -2 -13 -7 -9 -5 3 -9 12 -9 21 0 19 13 9
16 -12z m-422 -11 c10 -25 -1 -29 -14 -5 -6 12 -7 21 -1 21 5 0 12 -7 15 -16z
m-147 -61 c-9 -9 -20 -13 -24 -9 -4 4 -1 11 7 16 25 16 35 11 17 -7z m46 2 c4
-8 2 -17 -3 -20 -6 -4 -10 3 -10 14 0 25 6 27 13 6z m130 -47 c17 -44 21 -67
14 -76 -7 -9 -13 -10 -21 -2 -15 15 -26 12 -26 -5 0 -9 -7 -18 -16 -22 -14 -5
-14 -7 -1 -14 19 -11 11 -49 -10 -49 -9 0 -11 5 -7 13 6 9 4 9 -8 -1 -21 -17
-33 0 -30 41 2 27 2 28 -15 12 -16 -17 -16 -19 0 -48 12 -19 13 -26 4 -19 -10
9 -16 9 -25 0 -9 -9 -12 -8 -12 6 0 9 -4 15 -9 11 -6 -3 -8 4 -6 15 6 29 14
40 32 40 13 0 13 3 3 15 -11 13 -10 18 6 31 10 9 13 12 6 9 -10 -5 -13 -2 -10
11 2 11 10 18 16 17 7 -2 12 2 12 8 0 6 7 3 16 -5 8 -9 20 -14 25 -11 5 4 9 1
9 -6 0 -7 3 -10 6 -6 3 3 -1 20 -10 38 -19 38 -20 47 -4 31 18 -18 30 -14 23
8 -3 11 -2 20 3 20 6 0 21 -28 35 -62z m-156 27 c0 -8 -4 -12 -9 -9 -5 3 -6
10 -3 15 9 13 12 11 12 -6z m-531 -154 c1 -11 -3 -21 -7 -21 -5 0 -9 5 -9 11
0 5 -4 8 -9 4 -11 -6 -34 29 -25 38 12 12 49 -11 50 -32z m729 -151 c4 -6 1
-18 -6 -26 -6 -8 -9 -17 -5 -21 3 -3 6 -2 6 4 0 13 42 11 53 -2 5 -6 7 -4 4 5
-2 8 -10 15 -18 15 -7 0 -15 9 -16 20 -2 16 -1 17 5 4 4 -9 14 -15 24 -14 13
2 15 -3 11 -29 -3 -17 -6 -39 -6 -48 -1 -12 -5 -14 -19 -7 -13 7 -16 5 -13 -9
2 -11 -3 -19 -10 -19 -8 0 -14 3 -13 6 0 3 0 15 -1 26 -1 17 -3 18 -11 5 -10
-16 -14 -8 -11 23 1 9 -3 17 -9 17 -6 0 -8 -6 -4 -12 4 -7 3 -9 -1 -5 -16 14
-14 37 5 47 9 5 20 6 24 3 3 -3 6 -1 6 6 0 8 -8 10 -22 6 -18 -5 -20 -4 -8 4
19 14 27 14 35 1z m-61 -22 c-13 -20 -12 -31 5 -53 9 -11 1 -7 -16 9 -18 16
-30 33 -27 38 3 4 10 6 15 3 5 -4 12 1 15 10 4 9 9 14 11 11 3 -3 1 -11 -3
-18z m-243 -61 c2 5 13 0 23 -11 14 -14 15 -18 4 -14 -11 5 -14 0 -12 -18 1
-13 -2 -24 -7 -24 -6 0 -7 -4 -4 -10 11 -17 24 -11 20 10 -2 11 0 22 4 25 15
9 4 -55 -13 -74 -9 -10 -13 -21 -9 -25 5 -4 1 -6 -7 -4 -13 3 -43 34 -46 48 0
3 -4 12 -7 20 -6 15 -5 71 2 65 2 -2 10 3 19 11 11 12 17 12 22 4 4 -7 9 -8
11 -3z m-334 -92 c0 -8 -4 -12 -9 -9 -5 3 -6 10 -3 15 9 13 12 11 12 -6z m132
-7 c-1 -7 1 -21 5 -30 7 -16 10 -16 29 -3 18 13 23 13 37 0 13 -11 15 -25 11
-53 -8 -50 -40 -56 -71 -12 -12 16 -25 28 -30 25 -5 -3 -6 10 -4 27 6 41 12
58 19 58 3 0 5 -6 4 -12z"/>
<path d="M9253 3985 c0 -8 4 -15 9 -15 4 0 8 7 8 15 0 8 -4 15 -8 15 -5 0 -9
-7 -9 -15z"/>
<path d="M9191 3944 c0 -11 3 -14 6 -6 3 7 2 16 -1 19 -3 4 -6 -2 -5 -13z"/>
<path d="M8991 3642 c0 -12 2 -13 6 -3 4 10 7 10 13 1 5 -9 9 -8 13 2 3 9 -2
14 -14 15 -12 1 -19 -4 -18 -15z"/>
<path d="M8870 3536 c0 -2 8 -10 18 -17 15 -13 16 -12 3 4 -13 16 -21 21 -21
13z"/>
<path d="M8752 4662 c-8 -6 -2 -9 18 -9 20 0 26 3 18 9 -7 4 -15 8 -18 8 -3 0
-11 -4 -18 -8z"/>
<path d="M9110 4650 c0 -5 9 -12 21 -15 16 -5 18 -10 8 -21 -9 -11 -6 -16 12
-23 13 -5 32 -18 43 -30 10 -11 23 -18 27 -15 5 3 9 0 9 -5 0 -6 3 -10 8 -10
18 3 32 -2 32 -12 0 -5 -6 -7 -12 -3 -9 5 -8 2 1 -10 8 -9 21 -14 29 -11 15 5
84 -54 77 -66 -3 -3 5 -15 16 -25 16 -14 14 -6 -11 44 -18 34 -36 62 -41 62
-5 0 -9 9 -9 19 0 12 -7 18 -17 17 -12 -1 -19 7 -21 23 -2 13 -12 26 -23 28
-10 3 -19 9 -19 13 0 9 -38 25 -92 39 -21 5 -38 6 -38 1z"/>
<path d="M10110 4623 c25 -35 47 -43 47 -18 0 11 -4 12 -14 3 -11 -9 -12 -7
-7 8 4 10 3 16 -1 11 -5 -4 -17 1 -28 10 -17 15 -16 12 3 -14z"/>
<path d="M8021 4624 c0 -11 3 -14 6 -6 3 7 2 16 -1 19 -3 4 -6 -2 -5 -13z"/>
<path d="M9465 4609 c4 -19 13 -37 19 -41 6 -4 7 -8 3 -8 -15 0 27 -60 46 -66
10 -3 16 -8 13 -11 -3 -3 4 -14 16 -25 29 -25 35 -15 12 19 -10 15 -17 31 -16
36 1 4 -2 7 -8 7 -5 0 -10 4 -10 9 0 5 12 8 28 5 26 -4 26 -3 -13 31 -22 19
-53 45 -69 57 l-28 21 7 -34z"/>
<path d="M9970 4630 c-9 -6 -10 -10 -3 -10 6 0 15 5 18 10 8 12 4 12 -15 0z"/>
<path d="M4533 4600 c-1 -11 2 -20 7 -20 4 0 7 7 6 15 -3 23 -12 26 -13 5z"/>
<path d="M7880 4607 c0 -19 -40 -29 -57 -15 -9 8 -13 7 -13 -2 0 -7 -8 -10
-20 -7 -13 3 -20 0 -20 -9 0 -19 -16 -18 -24 2 -3 8 -10 12 -16 9 -6 -4 -7
-11 -4 -17 4 -6 -1 -8 -15 -3 -15 5 -21 2 -21 -9 0 -9 -7 -16 -16 -16 -8 0
-12 -4 -9 -10 3 -5 1 -10 -5 -10 -7 0 -8 -6 -1 -19 14 -26 89 -101 101 -101
12 0 41 -56 33 -64 -4 -3 -1 -6 5 -6 22 0 27 -2 39 -12 9 -7 11 -5 9 9 -3 16
3 18 53 18 53 0 56 1 57 25 1 37 -6 50 -27 50 -29 0 -68 22 -75 42 -3 10 -11
15 -17 12 -7 -4 -3 2 8 13 11 12 24 17 29 13 5 -5 19 -4 33 1 16 6 22 5 18 -1
-3 -6 -1 -10 6 -10 6 0 9 8 6 20 -3 11 -1 18 4 14 5 -3 9 0 9 6 0 6 11 15 24
22 19 8 24 18 23 39 -1 17 -6 24 -11 19 -6 -6 -15 -5 -25 3 -12 9 -13 9 -7 0
4 -9 1 -13 -10 -13 -14 0 -14 -3 -4 -15 11 -13 15 -13 22 -3 7 9 8 8 6 -6 -3
-22 -28 -34 -29 -14 0 19 -59 64 -59 45z"/>
<path d="M8674 4585 c5 -19 3 -25 -10 -25 -10 0 -15 -3 -11 -6 3 -4 14 -3 24
1 21 9 29 12 43 14 6 0 10 6 10 12 0 5 -6 7 -12 3 -9 -5 -9 -2 1 9 12 15 10
17 -19 17 -29 0 -32 -2 -26 -25z"/>
<path d="M9000 4600 l-35 -5 32 -17 c24 -12 30 -12 26 -2 -3 9 2 12 20 8 15
-2 29 1 33 8 4 7 4 10 -1 6 -4 -4 -15 -4 -24 0 -9 5 -32 6 -51 2z"/>
<path d="M9390 4591 c0 -5 5 -13 10 -16 6 -3 10 -2 10 4 0 5 -4 13 -10 16 -5
3 -10 2 -10 -4z"/>
<path d="M9106 4575 c4 -8 8 -15 10 -15 2 0 4 7 4 15 0 8 -4 15 -10 15 -5 0
-7 -7 -4 -15z"/>
<path d="M9742 4578 c3 -7 15 -15 28 -16 21 -3 22 -2 11 12 -16 19 -44 21 -39
4z"/>
<path d="M2946 4548 c-44 -53 -33 -106 29 -143 52 -30 76 -31 100 -5 17 19 17
20 0 20 -9 0 -15 5 -12 13 2 6 0 23 -6 37 -5 14 -9 33 -8 43 1 9 -2 17 -7 17
-6 0 -20 11 -33 25 -13 13 -27 25 -30 25 -3 0 -18 -14 -33 -32z"/>
<path d="M2252 4554 c-9 -16 13 -74 30 -82 5 -2 3 -12 -2 -22 -7 -13 -7 -21 1
-26 16 -10 40 26 34 47 -4 10 -7 36 -8 58 -1 35 -4 41 -24 41 -12 0 -26 -7
-31 -16z"/>
<path d="M8768 4555 c5 -11 7 -27 4 -35 -4 -11 -1 -11 12 2 15 16 18 15 41 -8
25 -25 55 -32 55 -14 0 13 -42 30 -54 22 -5 -3 -6 2 -3 12 6 14 2 17 -16 14
-12 -2 -28 4 -35 12 -11 13 -12 12 -4 -5z"/>
<path d="M2632 4544 c-17 -12 -22 -25 -22 -60 0 -24 4 -44 8 -44 20 0 44 41
44 75 0 45 -3 48 -30 29z"/>
<path d="M8370 4550 c-13 -8 -12 -10 3 -10 9 0 17 5 17 10 0 12 -1 12 -20 0z"/>
<path d="M8710 4545 c0 -16 16 -20 24 -6 3 5 -1 11 -9 15 -9 3 -15 0 -15 -9z"/>
<path d="M8690 4539 c0 -7 -10 -9 -25 -7 -36 7 -41 -9 -11 -37 14 -13 26 -28
26 -33 0 -4 13 -18 29 -30 35 -26 81 -39 81 -23 0 6 13 11 29 11 17 0 33 5 37
12 4 7 3 8 -4 4 -7 -4 -12 -1 -12 8 0 9 7 13 20 11 25 -5 27 12 3 17 -10 2
-23 -5 -30 -17 -7 -11 -12 -14 -13 -7 0 6 -10 12 -22 12 -19 0 -20 2 -8 10 8
5 10 10 5 10 -6 0 -15 -4 -20 -9 -6 -5 -20 -5 -35 1 -20 7 -22 11 -10 18 11 7
9 11 -13 19 -18 7 -25 15 -21 26 3 8 3 15 0 15 -3 0 -6 -5 -6 -11z"/>
<path d="M7560 4530 c0 -6 7 -10 15 -10 8 0 15 2 15 4 0 2 -7 6 -15 10 -8 3
-15 1 -15 -4z"/>
<path d="M8070 4529 c0 -5 5 -7 10 -4 6 3 10 8 10 11 0 2 -4 4 -10 4 -5 0 -10
-5 -10 -11z"/>
<path d="M8922 4500 c-15 -25 -15 -28 1 -27 6 0 23 -1 36 -1 24 -2 24 -2 5
-16 -10 -8 -16 -18 -11 -22 4 -4 7 -2 7 4 0 7 9 12 21 12 11 0 18 4 15 9 -3 5
1 12 10 15 23 9 8 25 -18 18 -16 -4 -19 -2 -13 8 6 10 3 12 -13 8 -12 -3 -22
-2 -24 3 -2 5 -9 0 -16 -11z"/>
<path d="M10100 4511 c0 -5 -7 -8 -16 -7 -37 3 -44 -77 -8 -91 33 -13 75 65
52 95 -12 14 -28 16 -28 3z"/>
<path d="M9570 4501 c0 -5 7 -12 16 -15 14 -5 15 -4 4 9 -14 17 -20 19 -20 6z"/>
<path d="M10586 4467 c-6 -26 7 -42 28 -34 22 9 20 34 -3 46 -15 9 -20 7 -25
-12z"/>
<path d="M9013 4447 c0 -8 6 -14 14 -14 9 0 10 4 2 14 -6 7 -12 13 -14 13 -1
0 -2 -6 -2 -13z"/>
<path d="M7574 4429 c-9 -10 -22 -18 -28 -18 -15 3 -58 -16 -57 -24 2 -21 -1
-25 -16 -23 -31 2 -23 -46 11 -64 22 -11 30 -12 33 -2 3 6 15 12 27 12 37 0
80 19 94 41 18 29 6 74 -23 87 -19 9 -26 7 -41 -9z"/>
<path d="M4760 4430 c0 -5 5 -10 11 -10 5 0 7 5 4 10 -3 6 -8 10 -11 10 -2 0
-4 -4 -4 -10z"/>
<path d="M8644 4412 c4 -3 14 -7 22 -8 9 -1 13 0 10 4 -4 3 -14 7 -22 8 -9 1
-13 0 -10 -4z"/>
<path d="M7110 4403 c0 -4 9 -14 21 -21 18 -12 20 -11 17 5 -3 17 -38 32 -38
16z"/>
<path d="M8557 4399 c7 -7 15 -10 18 -7 3 3 -2 9 -12 12 -14 6 -15 5 -6 -5z"/>
<path d="M8696 4368 c3 -5 10 -6 15 -3 13 9 11 12 -6 12 -8 0 -12 -4 -9 -9z"/>
<path d="M10346 4344 c-9 -23 1 -34 29 -32 27 3 32 17 13 36 -17 17 -35 15
-42 -4z"/>
<path d="M3039 4325 c-1 -3 -2 -9 -3 -14 0 -5 -4 -13 -8 -17 -38 -37 61 -140
132 -139 14 0 28 -4 32 -10 5 -6 14 -4 25 8 16 16 16 17 -1 17 -23 0 -86 49
-86 67 0 8 -17 32 -38 54 -37 37 -50 46 -53 34z"/>
<path d="M7801 4301 c-21 -6 -22 -8 -7 -20 13 -11 17 -11 22 4 5 13 9 14 15 3
6 -9 9 -9 9 -1 0 17 -11 21 -39 14z"/>
<path d="M7857 4303 c-2 -4 4 -17 14 -27 22 -22 25 -10 5 17 -8 10 -16 15 -19
10z"/>
<path d="M9350 4301 c0 -7 -5 -9 -12 -5 -7 5 -8 3 -3 -5 5 -9 10 -10 18 -2 6
6 8 14 4 18 -4 3 -7 1 -7 -6z"/>
<path d="M2388 4289 c-25 -14 -24 -59 1 -59 16 0 21 -10 26 -57 7 -58 33 -133
46 -133 3 0 12 6 18 14 14 16 13 183 0 192 -5 3 -7 10 -4 15 4 5 -1 9 -10 9
-9 0 -26 6 -38 14 -16 11 -27 12 -39 5z"/>
<path d="M3400 4284 c-53 -17 -75 -36 -66 -59 5 -14 15 -11 76 21 97 51 92 70
-10 38z"/>
<path d="M7648 4253 c-21 -2 -38 -8 -38 -13 0 -5 -8 -11 -18 -14 -11 -4 -23
-24 -29 -49 -13 -46 -65 -107 -93 -107 -29 0 -85 -49 -86 -76 -1 -22 1 -24 14
-10 10 10 21 12 37 6 17 -7 27 -4 40 10 9 10 14 24 10 29 -3 6 0 11 7 11 8 0
35 20 61 45 35 33 57 45 82 47 43 3 48 -3 64 -71 11 -42 11 -55 1 -61 -7 -4
-10 -12 -6 -18 9 -15 -5 -44 -19 -38 -7 2 -23 -5 -34 -16 l-22 -20 25 -25 c15
-14 26 -33 26 -41 0 -16 -49 -94 -62 -100 -5 -2 -8 -12 -8 -23 0 -11 -7 -22
-15 -25 -9 -4 -13 -15 -11 -30 4 -22 2 -24 -42 -21 -46 2 -47 1 -46 -28 0 -16
-7 -36 -15 -42 -14 -11 -14 -14 -1 -23 26 -17 66 -11 89 14 12 13 21 27 20 32
-4 22 2 34 17 34 10 0 14 6 10 15 -3 8 -2 14 2 14 4 -1 14 -1 22 0 13 1 13 2
0 11 -12 8 -11 10 5 10 30 0 139 117 143 154 2 18 0 26 -7 21 -6 -3 -11 -1
-11 5 0 6 -4 9 -8 6 -10 -6 -9 41 2 72 4 12 13 22 19 22 7 0 23 9 35 19 22 16
23 19 7 34 -17 18 -40 14 -29 -5 5 -7 2 -8 -5 -4 -7 5 -10 10 -7 13 3 3 1 14
-5 24 -6 13 -6 25 0 36 7 14 2 24 -24 48 -32 28 -33 32 -22 55 11 21 20 25 51
23 21 -2 51 -9 67 -17 34 -17 59 -15 73 6 14 23 0 52 -22 42 -31 -14 -108 -6
-124 13 -10 13 -41 14 -120 6z"/>
<path d="M9166 4247 c3 -10 9 -15 12 -12 3 3 0 11 -7 18 -10 9 -11 8 -5 -6z"/>
<path d="M2800 4228 c0 -8 3 -18 8 -22 4 -4 7 -20 7 -34 0 -22 5 -27 25 -27
20 0 26 6 28 28 2 17 -1 27 -9 27 -7 0 -23 10 -36 22 -18 16 -23 18 -23 6z"/>
<path d="M8650 4210 c0 -12 28 -21 35 -11 2 5 -4 11 -15 14 -11 3 -20 2 -20
-3z"/>
<path d="M10283 4186 c-13 -28 -14 -39 -5 -48 9 -9 12 -9 12 1 0 7 5 9 10 6 6
-3 10 1 10 10 0 9 4 14 9 11 5 -3 12 1 15 10 8 21 8 39 -1 31 -3 -4 -12 -2
-19 4 -10 8 -17 3 -31 -25z"/>
<path d="M10060 4192 c0 -4 11 -24 25 -43 13 -20 22 -38 20 -41 -2 -2 5 -4 15
-5 27 -2 25 14 -6 59 -24 34 -54 51 -54 30z"/>
<path d="M9997 4160 c-16 -15 -30 -44 -34 -63 -5 -33 -3 -37 21 -43 33 -8 91
2 104 19 12 14 -11 77 -28 77 -6 0 -9 4 -6 8 2 4 -3 13 -13 19 -13 8 -22 5
-44 -17z m66 -37 c-3 -7 -6 -13 -8 -13 -2 0 -5 6 -8 13 -3 8 1 14 8 14 7 0 11
-6 8 -14z"/>
<path d="M7386 4168 c3 -5 10 -6 15 -3 13 9 11 12 -6 12 -8 0 -12 -4 -9 -9z"/>
<path d="M3012 4128 c-7 -7 -5 -24 6 -57 19 -52 28 -61 59 -61 12 0 23 -5 25
-12 3 -7 10 -8 17 -3 11 6 10 10 -3 17 -9 5 -14 13 -11 18 8 12 -32 76 -59 94
-16 10 -26 12 -34 4z"/>
<path d="M3470 4080 c-8 -5 -24 -10 -36 -10 -17 0 -21 -7 -22 -40 -2 -38 0
-40 22 -34 17 4 28 0 37 -14 8 -10 30 -32 49 -48 19 -15 32 -24 28 -19 -4 4
-3 14 2 20 17 20 19 76 4 82 -8 3 -14 14 -14 24 0 10 -7 19 -15 19 -8 0 -15 7
-15 15 0 17 -18 19 -40 5z m67 -135 c0 -8 -4 -12 -9 -9 -5 3 -6 10 -3 15 9 13
12 11 12 -6z"/>
<path d="M9754 4056 c-6 -19 -16 -31 -26 -31 -10 0 -19 -4 -20 -9 -2 -5 -18
-24 -35 -43 -18 -18 -33 -37 -33 -41 0 -4 -4 -24 -9 -45 -19 -80 56 -80 94 0
10 21 18 43 18 49 0 6 6 11 13 11 7 0 11 -3 9 -7 -2 -4 2 -7 10 -7 8 0 13 5
12 11 -1 6 8 15 21 21 46 20 37 75 -17 106 -27 16 -28 16 -37 -15z"/>
<path d="M9677 4013 c-4 -3 -7 -11 -7 -17 0 -6 5 -5 12 2 6 6 9 14 7 17 -3 3
-9 2 -12 -2z"/>
<path d="M2635 3970 c-21 -40 -19 -47 11 -54 18 -5 32 -2 44 9 24 22 32 55 14
55 -8 0 -14 5 -14 10 0 23 -40 8 -55 -20z"/>
<path d="M8045 3957 c2 -18 3 -35 4 -38 1 -6 47 -29 57 -29 3 0 2 5 -1 10 -3
6 -1 10 4 10 26 0 -8 47 -50 71 -14 7 -16 3 -14 -24z"/>
<path d="M8793 3933 c0 -16 1 -20 4 -10 2 9 9 14 15 11 6 -4 9 -1 6 6 -8 25
-24 20 -25 -7z"/>
<path d="M3566 3933 c-7 -17 4 -44 15 -37 5 3 9 -1 9 -9 0 -22 38 -28 57 -9
16 16 15 17 -10 20 -18 2 -29 11 -33 26 -6 25 -30 31 -38 9z"/>
<path d="M2736 3912 c-4 -7 -15 -11 -23 -10 -9 2 -18 -4 -20 -12 -4 -13 -3
-13 6 0 12 17 14 11 11 -42 -1 -34 23 -88 40 -88 9 0 40 63 40 82 0 8 -8 23
-18 34 -11 11 -21 26 -24 34 -3 11 -6 11 -12 2z"/>
<path d="M9464 3910 c-5 -5 -22 -11 -37 -12 -35 -3 -34 -16 3 -52 25 -24 30
-26 36 -12 3 9 10 14 14 11 12 -8 22 31 15 55 -7 22 -16 25 -31 10z"/>
<path d="M3273 3903 c-23 -9 -14 -38 20 -71 27 -26 36 -30 44 -20 35 43 -14
112 -64 91z"/>
<path d="M7556 3871 c-4 -5 -2 -12 3 -15 5 -4 12 -2 15 3 4 5 2 12 -3 15 -5 4
-12 2 -15 -3z"/>
<path d="M4214 3835 c-7 -17 2 -45 14 -45 4 0 9 14 10 30 2 31 -14 41 -24 15z"/>
<path d="M10000 3809 c0 -13 -7 -33 -15 -43 -20 -27 -10 -36 27 -25 49 14 52
23 18 59 -29 31 -30 31 -30 9z"/>
<path d="M3385 3790 c-18 -34 -19 -56 -4 -65 18 -12 48 24 44 53 -2 15 -4 30
-4 35 -2 17 -22 5 -36 -23z"/>
<path d="M9513 3808 c-20 -26 -22 -46 -5 -43 9 2 22 4 29 4 6 1 11 10 10 20
-1 12 -6 17 -16 13 -9 -3 -12 -1 -7 6 10 16 1 15 -11 0z m12 -17 c3 -5 1 -12
-5 -16 -5 -3 -10 1 -10 9 0 18 6 21 15 7z"/>
<path d="M3672 3771 c2 -7 20 -27 40 -44 30 -24 49 -31 94 -33 57 -3 83 10 84
42 0 17 -40 25 -63 12 -17 -9 -19 -8 -14 11 3 11 2 21 -1 22 -4 0 -38 1 -75 3
-54 1 -67 -1 -65 -13z"/>
<path d="M7294 3777 c-14 -8 -13 -12 6 -31 28 -31 75 -30 76 2 1 12 -5 22 -12
22 -8 0 -14 4 -14 9 0 12 -34 10 -56 -2z"/>
<path d="M9792 3724 c-24 -17 -29 -53 -10 -72 18 -18 62 -14 86 8 30 28 28 47
-8 65 -36 19 -40 19 -68 -1z"/>
<path d="M4607 3724 c-9 -9 4 -35 14 -28 5 3 9 12 9 20 0 14 -12 19 -23 8z"/>
<path d="M4141 3687 c-5 -13 -16 -29 -25 -36 -23 -19 -20 -38 7 -43 35 -7 82
42 73 77 -8 32 -43 34 -55 2z"/>
<path d="M2383 3693 c-7 -3 -13 -12 -13 -20 0 -10 6 -13 16 -9 11 4 15 2 11
-8 -3 -8 0 -17 8 -20 7 -2 16 2 19 10 7 18 -24 53 -41 47z"/>
<path d="M2919 3679 c-9 -17 -7 -27 13 -54 31 -44 67 -72 98 -76 37 -6 40 35
4 72 -32 33 -44 36 -44 12 0 -15 -2 -15 -9 -4 -5 8 -7 20 -4 28 3 7 -2 16 -11
19 -9 3 -13 10 -10 15 3 5 -2 9 -10 9 -8 0 -20 -9 -27 -21z"/>
<path d="M4626 3685 c-4 -13 -2 -14 14 -5 23 13 26 20 6 20 -8 0 -16 -7 -20
-15z"/>
<path d="M3850 3627 c0 -18 11 -28 45 -44 40 -18 45 -19 45 -4 0 23 -47 71
-70 71 -14 0 -20 -7 -20 -23z"/>
<path d="M4214 3590 c3 -19 5 -39 5 -43 1 -5 6 -5 12 -2 6 4 21 -3 33 -14 13
-12 30 -19 38 -16 25 10 -4 57 -44 74 -18 8 -36 19 -40 25 -5 6 -6 -5 -4 -24z"/>
<path d="M4060 3575 c-14 -8 -44 -14 -68 -15 -40 0 -42 -1 -31 -21 8 -15 18
-20 35 -16 34 6 64 -34 64 -85 0 -44 21 -59 48 -35 9 9 22 16 27 16 6 1 10 27
10 59 0 43 -4 57 -15 57 -8 0 -17 -11 -20 -24 -3 -14 -11 -26 -17 -28 -16 -6
-27 55 -13 72 19 23 7 35 -20 20z"/>
<path d="M3558 3559 c-44 -25 -38 -68 10 -83 18 -6 24 -2 32 19 12 30 3 75
-14 75 -6 0 -19 -5 -28 -11z"/>
<path d="M9655 3542 c-16 -8 -37 -18 -45 -22 -17 -8 -37 -56 -28 -66 4 -3 23
-9 42 -14 28 -6 36 -5 36 6 0 8 14 26 30 41 33 29 39 57 14 67 -9 3 -16 6 -17
5 -1 0 -15 -8 -32 -17z"/>
<path d="M7629 3529 c0 -2 -3 -20 -6 -39 -2 -19 -8 -39 -13 -44 -11 -11 -1
-36 15 -36 20 0 45 35 45 62 0 20 -37 72 -41 57z"/>
<path d="M4213 3455 c4 -26 7 -56 7 -67 0 -13 4 -17 13 -11 6 4 33 6 59 5 54
-4 75 15 28 25 -19 3 -36 15 -42 28 -6 13 -24 33 -41 45 l-30 23 6 -48z"/>
<path d="M3212 3455 c-15 -33 -15 -35 3 -35 8 0 15 6 15 13 0 8 4 7 11 -3 9
-12 10 -12 5 3 -3 10 -6 25 -6 33 0 22 -16 16 -28 -11z"/>
<path d="M3820 3434 c-13 -33 -13 -47 0 -39 6 4 16 2 23 -3 12 -10 52 -10 62
0 7 7 -53 68 -66 68 -5 0 -14 -12 -19 -26z"/>
<path d="M4527 3443 c-10 -9 -8 -56 3 -73 8 -12 13 -13 30 -2 18 11 24 9 48
-15 27 -28 74 -51 125 -60 29 -6 60 -40 50 -56 -4 -6 -1 -7 8 -2 11 7 12 6 3
-6 -6 -8 -14 -36 -17 -62 -5 -47 -4 -48 14 -31 14 12 23 14 30 7 6 -6 24 -8
45 -3 22 5 34 4 34 -3 0 -6 3 -7 7 -3 4 3 -7 19 -24 34 -16 16 -32 33 -34 38
-2 5 -17 19 -33 32 -16 12 -24 22 -17 22 6 0 10 3 9 8 -5 20 14 50 30 45 10
-2 28 0 42 5 l25 9 -37 37 c-39 39 -54 45 -56 21 -1 -8 -3 -22 -4 -30 -1 -8
-5 -12 -10 -9 -4 3 -14 2 -20 -3 -20 -12 -50 -14 -62 -4 -22 18 -87 51 -100
51 -8 0 -28 14 -46 30 -36 33 -34 33 -43 23z"/>
<path d="M3262 3418 c2 -6 12 -12 22 -14 9 -1 16 2 14 8 -2 6 -12 12 -22 14
-9 1 -16 -2 -14 -8z"/>
<path d="M8520 3421 c0 -5 7 -17 16 -25 8 -9 13 -20 9 -25 -3 -5 0 -13 6 -17
8 -5 9 -3 4 6 -6 10 -4 12 8 7 24 -9 21 8 -7 37 -24 27 -36 32 -36 17z"/>
<path d="M9390 3416 c0 -12 29 -26 55 -26 12 1 -34 40 -46 40 -5 0 -9 -6 -9
-14z"/>
<path d="M3310 3406 c0 -7 7 -13 15 -13 8 0 15 4 15 8 0 4 -7 9 -15 13 -9 3
-15 0 -15 -8z"/>
<path d="M4920 3391 c-6 -12 -7 -21 -1 -21 10 0 24 30 17 37 -2 3 -9 -5 -16
-16z"/>
<path d="M9191 3386 c-8 -10 -8 -21 -1 -40 8 -22 15 -27 38 -24 19 2 28 9 30
26 6 43 -41 70 -67 38z"/>
<path d="M7310 3370 c0 -5 5 -10 10 -10 6 0 10 5 10 10 0 6 -4 10 -10 10 -5 0
-10 -4 -10 -10z"/>
<path d="M4440 3336 c0 -39 10 -54 31 -49 23 6 24 21 3 51 -20 29 -34 28 -34
-2z"/>
<path d="M9065 3316 c-74 -32 -81 -74 -12 -71 78 3 110 39 62 71 -16 10 -25
10 -50 0z"/>
<path d="M4190 3265 c-6 -19 -9 -39 -5 -45 6 -9 50 -31 87 -43 26 -9 29 19 3
43 -13 12 -29 35 -35 51 -17 39 -36 37 -50 -6z"/>
<path d="M4946 3285 c-3 -10 1 -15 12 -15 13 0 14 -2 4 -9 -8 -4 -13 -12 -12
-17 1 -5 -1 -31 -6 -59 -4 -27 -6 -53 -6 -57 1 -5 -3 -8 -9 -8 -7 0 1 -10 16
-22 l28 -22 18 23 c23 28 23 35 4 54 -8 8 -15 32 -16 53 -3 82 -18 118 -33 79z"/>
<path d="M4027 3242 c-18 -20 -24 -57 -8 -47 6 3 14 -2 19 -11 7 -13 15 -15
38 -7 17 6 29 17 29 26 0 10 -3 16 -7 15 -3 -2 -17 7 -31 20 -23 22 -24 22
-40 4z"/>
<path d="M3430 3226 c0 -31 14 -40 30 -21 15 18 6 45 -15 45 -9 0 -15 -9 -15
-24z"/>
<path d="M8540 3240 c0 -5 5 -10 11 -10 5 0 7 5 4 10 -3 6 -8 10 -11 10 -2 0
-4 -4 -4 -10z"/>
<path d="M4424 3227 c-20 -54 20 -115 80 -120 36 -3 46 18 13 27 -15 3 -30 20
-42 46 -23 50 -42 69 -51 47z"/>
<path d="M3485 3220 c3 -5 8 -10 11 -10 2 0 4 5 4 10 0 6 -5 10 -11 10 -5 0
-7 -4 -4 -10z"/>
<path d="M4590 3184 c-12 -31 -6 -44 44 -83 48 -38 65 -28 41 23 -10 20 -21
36 -26 36 -5 0 -15 11 -21 25 -14 32 -26 32 -38 -1z"/>
<path d="M3766 3184 c-5 -13 -9 -14 -20 -5 -11 10 -14 9 -12 -3 3 -24 14 -30
31 -16 8 7 15 9 15 4 0 -5 4 -2 9 6 10 15 6 30 -9 30 -4 0 -11 -7 -14 -16z"/>
<path d="M4170 3041 c0 -5 7 -12 16 -15 14 -5 15 -4 4 9 -14 17 -20 19 -20 6z"/>
<path d="M4336 3001 c-12 -14 -14 -21 -6 -26 17 -10 47 22 34 35 -7 7 -16 4
-28 -9z"/>
<path d="M4511 2967 c-12 -15 -5 -27 16 -27 7 0 13 9 13 20 0 23 -13 26 -29 7z"/>
<path d="M7550 2946 c0 -9 5 -16 10 -16 6 0 10 4 10 9 0 6 -4 13 -10 16 -5 3
-10 -1 -10 -9z"/>
<path d="M4685 2930 c-16 -17 -16 -20 -3 -15 9 4 19 13 22 21 7 19 2 18 -19
-6z"/>
<path d="M4977 2943 c-4 -3 -7 -11 -7 -17 0 -6 5 -5 12 2 6 6 9 14 7 17 -3 3
-9 2 -12 -2z"/>
<path d="M4926 2933 c-2 -2 -18 -5 -35 -5 -18 -1 -31 -6 -31 -13 0 -20 94 -14
98 6 2 14 -21 23 -32 12z"/>
<path d="M8324 2159 c-22 -17 -38 -35 -37 -39 3 -9 -96 -85 -110 -85 -5 0 -15
-8 -22 -19 -12 -16 -12 -22 3 -41 14 -18 19 -20 30 -8 8 7 18 11 23 8 9 -6 13
7 10 37 -2 13 4 16 20 13 12 -3 27 -10 33 -16 8 -9 7 -10 -5 -6 -19 6 -21 -20
-2 -27 9 -4 11 -1 7 6 -5 8 -2 9 9 5 9 -3 22 0 30 7 7 8 22 16 33 18 13 2 21
14 24 38 4 20 9 41 13 47 9 14 -2 93 -13 93 -4 0 -25 -14 -46 -31z"/>
<path d="M6623 2135 c0 -8 4 -12 9 -9 5 3 6 10 3 15 -9 13 -12 11 -12 -6z"/>
<path d="M6659 2078 c-7 -27 -4 -39 9 -50 15 -11 15 -11 5 3 -9 11 -9 19 -2
26 8 8 8 13 0 17 -6 4 -11 6 -12 4z"/>
<path d="M7708 1980 c-16 -25 -30 -26 -21 -2 5 14 3 13 -10 -3 -10 -13 -12
-25 -7 -35 7 -12 3 -16 -15 -16 -13 0 -22 3 -19 7 6 10 -17 5 -42 -9 -12 -6
-25 -8 -29 -4 -5 4 -5 1 -1 -5 7 -12 -5 -18 -27 -14 -5 1 -6 -3 -3 -8 4 -5 2
-12 -4 -16 -5 -3 -10 -2 -10 4 0 13 -24 8 -46 -9 -10 -8 -15 -10 -11 -4 3 6 0
11 -7 11 -8 0 -12 -7 -8 -15 4 -11 2 -13 -9 -7 -11 7 -11 5 1 -10 8 -10 15
-21 15 -24 0 -3 3 -5 7 -4 4 2 12 -23 18 -55 14 -68 20 -79 31 -61 6 10 8 7 6
-8 0 -12 -5 -19 -9 -17 -4 3 -8 0 -8 -5 0 -6 5 -11 10 -11 6 0 15 -10 20 -22
10 -23 10 -23 7 2 -1 18 3 25 18 27 17 2 17 2 3 -5 -12 -5 -15 -11 -8 -22 7
-11 10 -11 10 -2 0 7 5 10 10 7 8 -5 7 -12 -2 -23 -12 -15 -11 -16 4 -4 9 8
15 19 12 26 -3 7 2 13 11 13 8 0 15 -4 15 -9 0 -4 10 -7 23 -5 19 2 22 -3 25
-33 2 -26 0 -31 -8 -20 -7 11 -10 11 -10 2 0 -7 -4 -10 -10 -7 -6 4 -7 -1 -3
-11 4 -12 3 -15 -5 -10 -7 4 -12 3 -12 -3 0 -5 -11 -8 -25 -5 -17 3 -27 -2
-35 -15 -12 -24 -9 -71 5 -71 5 0 3 -5 -5 -10 -9 -6 -11 -10 -3 -10 7 0 10 -7
6 -17 -5 -12 -3 -14 7 -8 9 6 11 4 5 -5 -4 -7 -8 -26 -7 -41 0 -16 -4 -32 -10
-35 -7 -5 -8 -2 -3 7 7 12 6 12 -9 0 -24 -20 -64 -20 -79 -1 -11 13 -10 13 7
0 18 -14 19 -14 5 7 -7 12 -16 18 -19 14 -3 -5 -22 -7 -43 -5 -28 2 -42 -2
-58 -19 -19 -21 -20 -21 -14 -2 5 16 5 17 -3 5 -6 -8 -9 -17 -6 -21 2 -4 0
-10 -6 -14 -11 -7 -3 -53 13 -72 13 -18 63 -16 115 4 35 13 54 14 97 6 38 -6
55 -6 58 1 6 21 -9 81 -19 79 -10 -2 -11 11 -5 52 1 6 6 3 11 -5 8 -12 10 -12
10 -1 0 8 2 12 5 9 3 -3 2 -13 -1 -22 -5 -14 -9 -15 -15 -4 -6 9 -9 9 -9 1 0
-19 20 -26 26 -9 3 8 14 13 25 11 11 -2 17 0 14 5 -3 5 3 9 12 9 24 0 45 5 62
15 9 6 12 5 7 -2 -3 -6 -2 -13 3 -16 5 -4 12 2 14 11 3 13 5 10 6 -7 1 -19 3
-22 10 -10 6 8 7 18 4 24 -3 5 -1 6 6 2 6 -4 9 -11 6 -16 -3 -4 2 -11 11 -14
9 -3 12 -11 8 -18 -4 -7 -3 -10 1 -5 13 11 17 49 5 42 -6 -4 -7 1 -3 11 5 14
8 13 19 -7 7 -13 13 -19 14 -13 0 7 -9 22 -21 35 -11 13 -18 19 -15 12 4 -6 2
-14 -3 -18 -10 -6 -7 27 4 44 3 5 0 13 -6 17 -8 5 -10 2 -5 -7 4 -8 -1 -4 -10
9 -9 12 -25 22 -36 22 -10 0 -16 5 -13 10 3 6 -3 10 -14 10 -25 0 -26 15 -5
65 11 27 12 35 2 29 -10 -6 -11 -5 -1 7 6 8 11 36 10 61 -1 26 2 50 5 54 10 9
39 -22 30 -32 -4 -5 1 -2 11 5 18 14 24 26 7 16 -5 -3 -10 -1 -10 6 0 7 8 9
21 6 14 -4 18 -2 11 6 -5 7 -12 21 -15 32 -7 20 -7 20 8 1 13 -18 15 -18 15
-3 0 10 7 20 15 23 8 4 15 16 15 29 0 12 11 31 25 41 16 12 25 29 25 46 0 16
6 28 13 28 8 0 7 4 -3 10 -12 8 -12 10 -1 10 11 0 11 3 1 16 -8 8 -9 14 -3 12
6 -2 11 0 12 5 1 8 -3 9 -24 1 -8 -3 -13 -10 -10 -14 3 -5 1 -11 -5 -15 -5 -3
-11 -1 -11 4 -3 26 -4 30 -11 35 -5 3 -6 3 -3 0 2 -4 -3 -13 -11 -21 -8 -8
-12 -18 -10 -22 3 -4 -1 -8 -9 -8 -12 0 -12 3 -2 16 10 12 9 13 -2 7 -8 -5
-16 -4 -21 4 -6 9 -10 6 -15 -10 l-7 -22 -16 24 c-9 12 -16 26 -14 31 4 14 -8
7 -20 -13z m9 -22 c-3 -8 -6 -5 -6 6 -1 11 2 17 5 13 3 -3 4 -12 1 -19z m-164
-92 c-6 -29 -39 -42 -39 -15 0 10 3 16 7 13 4 -2 12 3 19 11 17 20 18 19 13
-9z m-32 -91 c11 6 11 5 2 -5 -12 -14 -33 -6 -33 13 0 8 3 7 9 -2 5 -8 14 -10
22 -6z m35 -21 c-10 -14 -20 -23 -23 -21 -6 6 30 57 36 51 2 -2 -4 -15 -13
-30z m27 -14 c3 -13 1 -18 -6 -13 -6 4 -8 0 -4 -10 4 -11 2 -14 -8 -11 -11 5
-11 11 -3 30 14 29 14 29 21 4z m107 -169 c0 -10 -7 -24 -16 -32 -24 -19 -39
9 -17 33 21 23 33 23 33 -1z m-57 -186 c-3 -9 -8 -14 -10 -11 -3 3 -2 9 2 15
9 16 15 13 8 -4z m47 9 c0 -8 -19 -13 -24 -6 -3 5 1 9 9 9 8 0 15 -2 15 -3z"/>
<path d="M7744 1989 c-3 -6 -2 -15 3 -20 5 -5 9 -1 9 11 0 23 -2 24 -12 9z"/>
<path d="M8330 1989 c0 -5 5 -7 10 -4 6 3 10 8 10 11 0 2 -4 4 -10 4 -5 0 -10
-5 -10 -11z"/>
<path d="M8368 1939 c-26 -15 -22 -39 5 -39 25 0 62 32 50 43 -9 10 -35 8 -55
-4z"/>
<path d="M8162 1896 c-39 -39 -34 -43 58 -42 62 1 65 2 68 27 3 28 -8 36 -62
44 -25 4 -37 -2 -64 -29z"/>
<path d="M8021 1871 c-8 -5 -20 -7 -28 -4 -7 3 -13 -1 -13 -8 0 -7 3 -9 7 -6
3 4 11 -1 18 -9 14 -20 75 -10 75 12 0 8 -4 14 -9 14 -5 0 -15 2 -23 5 -7 3
-19 1 -27 -4z"/>
<path d="M7316 1802 c-3 -5 1 -9 9 -9 8 0 12 4 9 9 -3 4 -7 8 -9 8 -2 0 -6 -4
-9 -8z"/>
<path d="M6679 1774 c-6 -7 -16 -11 -24 -8 -7 3 -19 -1 -26 -8 -7 -8 -25 -12
-42 -10 -44 7 -117 -33 -117 -64 0 -13 -5 -24 -11 -24 -6 0 -8 13 -5 30 2 17
0 30 -5 30 -5 0 -9 -5 -9 -10 0 -6 -8 -10 -17 -8 -15 2 -17 -3 -15 -31 3 -45
16 -59 53 -57 33 2 54 -16 54 -48 1 -12 6 -20 13 -19 7 2 12 -2 12 -9 0 -6 3
-8 6 -5 4 4 2 12 -4 20 -8 10 -7 13 7 13 12 0 17 -5 13 -15 -3 -8 -1 -12 4 -9
5 4 10 -5 11 -19 0 -14 7 -29 13 -33 8 -5 10 -16 6 -26 -5 -14 -2 -13 12 4 17
22 18 22 19 2 1 -11 -2 -18 -7 -15 -5 3 -12 0 -15 -6 -4 -5 -14 -8 -22 -5 -8
3 -12 2 -10 -2 3 -4 -1 -13 -9 -20 -8 -7 -14 -8 -14 -3 0 6 -7 8 -15 5 -8 -4
-13 -9 -11 -13 5 -9 -21 -31 -28 -24 -9 9 -6 -89 3 -112 5 -11 4 -25 -1 -32
-6 -7 -7 -13 -2 -13 4 0 0 -6 -11 -13 -17 -13 -13 -43 5 -32 5 3 12 0 16 -6 4
-8 3 -9 -4 -5 -8 5 -12 -1 -12 -16 0 -16 -3 -19 -9 -10 -6 11 -10 10 -15 -3
-3 -10 -1 -24 5 -31 9 -11 9 -14 0 -14 -7 0 -9 -4 -6 -10 3 -5 0 -10 -7 -10
-9 0 -9 -3 2 -10 11 -7 11 -10 2 -10 -7 0 -10 -4 -7 -10 3 -5 1 -10 -5 -10 -6
0 -9 -4 -6 -9 3 -4 -4 -17 -17 -27 -21 -19 -21 -19 -7 1 14 18 14 19 -2 7 -22
-18 -33 -69 -18 -87 7 -9 8 -15 0 -20 -9 -6 -14 1 -11 18 0 4 -15 7 -34 7 -43
0 -55 -21 -58 -95 -2 -47 2 -57 27 -84 17 -17 34 -31 39 -31 5 0 6 23 2 55 -6
48 -4 56 12 61 103 32 150 82 227 245 30 63 64 124 77 136 13 12 57 31 97 42
111 31 152 61 152 112 0 28 13 23 33 -11 10 -16 22 -30 28 -30 24 0 -7 129
-43 175 -27 34 -86 61 -101 46 -6 -6 -30 -11 -53 -11 -24 0 -46 -5 -49 -10 -4
-6 -16 -10 -27 -8 -12 2 -23 -3 -25 -12 -4 -13 -3 -13 6 0 8 12 10 11 8 -7 0
-12 -3 -20 -6 -18 -2 3 -10 0 -17 -6 -8 -7 -14 -6 -20 2 -4 7 -3 9 4 5 6 -3
13 -2 17 4 3 5 1 10 -5 10 -7 0 -7 7 2 23 7 12 11 27 10 34 -1 6 2 14 8 18 5
3 10 17 10 31 0 14 9 46 19 72 22 54 37 126 21 102 -5 -8 -10 -10 -10 -4 0 14
-49 13 -61 -2z m-139 -60 c0 -8 -4 -12 -10 -9 -5 3 -10 10 -10 16 0 5 5 9 10
9 6 0 10 -7 10 -16z m-41 -17 c8 -10 7 -14 -4 -14 -8 0 -15 6 -15 14 0 7 2 13
4 13 2 0 9 -6 15 -13z m111 -197 c0 -5 -2 -10 -4 -10 -3 0 -8 5 -11 10 -3 6
-1 10 4 10 6 0 11 -4 11 -10z"/>
<path d="M6375 1700 c-3 -5 -4 -10 0 -10 3 0 1 -10 -6 -21 -9 -17 -8 -20 3
-17 7 3 13 17 14 31 1 29 -1 33 -11 17z"/>
<path d="M7630 1625 c0 -8 4 -15 8 -15 5 0 9 7 9 15 0 8 -4 15 -9 15 -4 0 -8
-7 -8 -15z"/>
<path d="M6470 1580 c6 -11 12 -20 13 -20 2 0 3 9 4 20 1 12 -4 20 -13 20 -12
0 -12 -4 -4 -20z"/>
<path d="M7975 1461 c-3 -5 -1 -12 5 -16 5 -3 10 1 10 9 0 18 -6 21 -15 7z"/>
<path d="M7918 1447 c9 -10 6 -17 -8 -29 -10 -9 -20 -14 -22 -12 -3 2 -5 -3
-5 -11 0 -8 4 -12 9 -9 4 3 5 -2 2 -10 -3 -9 -10 -14 -14 -11 -5 3 -12 0 -16
-6 -4 -8 -3 -9 4 -5 8 5 12 -1 12 -16 0 -57 8 -64 83 -76 40 -6 116 -11 169
-12 l97 -1 21 40 c15 30 24 39 38 34 30 -11 61 -45 68 -76 5 -26 8 -28 16 -13
24 43 -27 136 -88 162 -18 8 -35 14 -38 14 -4 0 -20 -52 -18 -62 1 -3 -6 -12
-15 -20 -9 -7 -14 -8 -10 -2 4 7 0 14 -8 17 -10 4 -12 1 -8 -11 5 -14 3 -14
-9 2 -8 10 -21 16 -29 14 -8 -3 -22 -1 -32 4 -15 8 -16 12 -5 26 11 13 11 15
-4 9 -12 -4 -15 -2 -11 8 3 8 9 13 13 10 5 -3 12 0 16 6 4 8 3 9 -4 5 -7 -4
-12 -2 -12 5 0 7 -3 9 -7 6 -3 -4 -13 -1 -21 6 -13 10 -14 9 -7 -3 8 -13 7
-13 -8 -1 -16 12 -22 8 -18 -12 1 -5 -3 -6 -9 -2 -6 3 -7 11 -4 17 5 7 1 9 -9
5 -10 -4 -17 -2 -17 5 0 6 -6 6 -16 -3 -21 -17 -42 -20 -51 -7 -4 7 -1 8 8 4
8 -4 5 0 -5 8 -24 19 -43 21 -28 3z"/>
<path d="M7237 1360 c-17 -24 -24 -100 -9 -100 4 0 15 19 26 41 13 29 16 46 9
62 -9 20 -9 20 -26 -3z"/>
<path d="M7701 1359 c12 -24 26 -31 26 -14 0 8 -5 11 -10 8 -6 -4 -8 0 -5 9 4
8 0 15 -7 15 -10 0 -11 -5 -4 -18z"/>
<path d="M8110 1366 c0 -2 7 -7 16 -10 8 -3 12 -2 9 4 -6 10 -25 14 -25 6z"/>
<path d="M7680 1351 c0 -6 4 -13 10 -16 6 -3 7 1 4 9 -7 18 -14 21 -14 7z"/>
<path d="M6140 1135 c-23 -17 -36 -21 -41 -14 -4 8 -15 3 -30 -15 -13 -15 -29
-24 -39 -21 -10 3 -24 -6 -38 -25 -12 -16 -22 -31 -22 -32 0 -2 14 -5 30 -6
30 -2 84 16 188 64 29 13 61 24 72 24 11 0 20 4 20 9 0 17 -30 33 -55 29 -13
-3 -22 -1 -19 3 3 5 0 9 -5 9 -6 0 -11 -6 -11 -12 0 -10 -2 -10 -8 -1 -6 10
-17 7 -42 -12z"/>
<path d="M5856 1127 c-29 -29 -43 -89 -30 -126 14 -40 39 -33 40 11 1 20 10
48 22 62 19 25 20 60 1 72 -5 3 -20 -6 -33 -19z"/>
<path d="M7830 1084 c0 -8 -5 -12 -10 -9 -6 4 -10 3 -9 -2 4 -22 -2 -44 -10
-38 -6 3 -8 -4 -6 -15 2 -11 -3 -26 -11 -34 -8 -8 -14 -19 -14 -25 0 -12 36
-24 49 -17 16 10 30 -19 33 -68 2 -27 8 -51 15 -53 21 -7 39 92 35 196 -2 35
-5 42 -18 37 -10 -4 -18 0 -21 13 -6 24 -33 36 -33 15z m17 -116 c-2 -13 -4
-5 -4 17 -1 22 1 32 4 23 2 -10 2 -28 0 -40z"/>
</g>
</svg>
